STARTFONT 2.1
COMMENT Designed by Rob Myers and Ivan Bach
COMMENT Copyright (c) 1991-1993 Silicon Graphics, Inc.
COMMENT Generated by Fontographer 3.3
FONT -SGI-Screen-Bold-R-Normal--18-180-72-72-M-100-ISO8859-1
SIZE 18 72 72
FONTBOUNDINGBOX 10 18 0 -5
STARTPROPERTIES 22
_DEC_DEVICE_FONTNAMES "FM=Screen-Bold"
FONTNAME_REGISTRY ""
FAMILY_NAME "Screen"
FOUNDRY "SGI"
WEIGHT_NAME "Bold"
SLANT "R"
SETWIDTH_NAME "Normal"
ADD_STYLE_NAME ""
PIXEL_SIZE 18
POINT_SIZE 180
RESOLUTION_X 72
RESOLUTION_Y 72
SPACING "M"
AVERAGE_WIDTH 100
CHARSET_REGISTRY "ISO8859"
CHARSET_ENCODING "1"
CHARSET_COLLECTIONS "ASCII ISO8859-1"
FULL_NAME "Screen Bold"
FONT_ASCENT 13
FONT_DESCENT 5
CAP_HEIGHT 12
X_HEIGHT 9
ENDPROPERTIES
CHARS 190
STARTCHAR space
ENCODING 32
SWIDTH 556 0
DWIDTH 10 0
BBX 1 1 0 0
BITMAP
00
ENDCHAR
STARTCHAR exclam
ENCODING 33
SWIDTH 556 0
DWIDTH 10 0
BBX 2 12 4 0
BITMAP
c0
c0
c0
c0
c0
c0
c0
c0
00
00
c0
c0
ENDCHAR
STARTCHAR quotedbl
ENCODING 34
SWIDTH 556 0
DWIDTH 10 0
BBX 6 4 2 8
BITMAP
cc
cc
cc
cc
ENDCHAR
STARTCHAR numbersign
ENCODING 35
SWIDTH 556 0
DWIDTH 10 0
BBX 10 11 0 0
BITMAP
1980
1980
1980
7fc0
3300
3300
3300
ff80
6600
6600
6600
ENDCHAR
STARTCHAR dollar
ENCODING 36
SWIDTH 556 0
DWIDTH 10 0
BBX 7 15 1 -2
BITMAP
10
10
7c
d6
d6
d0
70
1c
16
16
d6
d6
7c
10
10
ENDCHAR
STARTCHAR percent
ENCODING 37
SWIDTH 556 0
DWIDTH 10 0
BBX 8 12 1 0
BITMAP
73
93
96
96
ec
18
18
37
69
69
c9
ce
ENDCHAR
STARTCHAR ampersand
ENCODING 38
SWIDTH 556 0
DWIDTH 10 0
BBX 9 12 0 0
BITMAP
3800
6c00
6c00
6c00
3800
3800
6c00
c780
c300
c300
6780
3e80
ENDCHAR
STARTCHAR quoteright
ENCODING 39
SWIDTH 556 0
DWIDTH 10 0
BBX 4 4 3 8
BITMAP
30
30
60
c0
ENDCHAR
STARTCHAR parenleft
ENCODING 40
SWIDTH 556 0
DWIDTH 10 0
BBX 6 17 2 -4
BITMAP
0c
18
30
60
60
c0
c0
c0
c0
c0
c0
c0
60
60
30
18
0c
ENDCHAR
STARTCHAR parenright
ENCODING 41
SWIDTH 556 0
DWIDTH 10 0
BBX 6 17 2 -4
BITMAP
c0
60
30
18
18
0c
0c
0c
0c
0c
0c
0c
18
18
30
60
c0
ENDCHAR
STARTCHAR asterisk
ENCODING 42
SWIDTH 556 0
DWIDTH 10 0
BBX 8 10 1 1
BITMAP
18
18
d3
ff
3c
3c
ff
cb
18
18
ENDCHAR
STARTCHAR plus
ENCODING 43
SWIDTH 556 0
DWIDTH 10 0
BBX 8 8 1 1
BITMAP
18
18
18
ff
ff
18
18
18
ENDCHAR
STARTCHAR comma
ENCODING 44
SWIDTH 556 0
DWIDTH 10 0
BBX 3 4 3 -2
BITMAP
60
60
20
c0
ENDCHAR
STARTCHAR minus
ENCODING 45
SWIDTH 556 0
DWIDTH 10 0
BBX 8 2 1 4
BITMAP
ff
ff
ENDCHAR
STARTCHAR period
ENCODING 46
SWIDTH 556 0
DWIDTH 10 0
BBX 2 2 3 0
BITMAP
c0
c0
ENDCHAR
STARTCHAR slash
ENCODING 47
SWIDTH 556 0
DWIDTH 10 0
BBX 8 14 1 -1
BITMAP
03
03
06
06
0c
0c
18
18
30
30
60
60
c0
c0
ENDCHAR
STARTCHAR zero
ENCODING 48
SWIDTH 556 0
DWIDTH 10 0
BBX 8 12 1 0
BITMAP
3c
66
c3
c7
cf
db
f3
e3
c3
c3
66
3c
ENDCHAR
STARTCHAR one
ENCODING 49
SWIDTH 556 0
DWIDTH 10 0
BBX 6 12 2 0
BITMAP
30
f0
30
30
30
30
30
30
30
30
30
fc
ENDCHAR
STARTCHAR two
ENCODING 50
SWIDTH 556 0
DWIDTH 10 0
BBX 8 12 1 0
BITMAP
3c
66
c3
c3
03
06
0c
18
30
60
c0
ff
ENDCHAR
STARTCHAR three
ENCODING 51
SWIDTH 556 0
DWIDTH 10 0
BBX 8 12 1 0
BITMAP
3c
66
c3
03
06
1c
06
03
03
c3
66
3c
ENDCHAR
STARTCHAR four
ENCODING 52
SWIDTH 556 0
DWIDTH 10 0
BBX 8 12 1 0
BITMAP
06
0e
1e
36
36
66
66
c6
ff
06
06
06
ENDCHAR
STARTCHAR five
ENCODING 53
SWIDTH 556 0
DWIDTH 10 0
BBX 8 12 1 0
BITMAP
ff
c0
c0
c0
fc
06
03
03
03
c3
66
3c
ENDCHAR
STARTCHAR six
ENCODING 54
SWIDTH 556 0
DWIDTH 10 0
BBX 8 12 1 0
BITMAP
3e
63
c0
c0
dc
e2
c3
c3
c3
c3
66
3c
ENDCHAR
STARTCHAR seven
ENCODING 55
SWIDTH 556 0
DWIDTH 10 0
BBX 8 12 1 0
BITMAP
ff
03
03
06
06
0c
0c
18
18
30
30
30
ENDCHAR
STARTCHAR eight
ENCODING 56
SWIDTH 556 0
DWIDTH 10 0
BBX 8 12 1 0
BITMAP
3c
66
c3
c3
66
3c
66
c3
c3
c3
66
3c
ENDCHAR
STARTCHAR nine
ENCODING 57
SWIDTH 556 0
DWIDTH 10 0
BBX 8 12 1 0
BITMAP
3c
66
c3
c3
c3
67
3b
03
03
03
c6
7c
ENDCHAR
STARTCHAR colon
ENCODING 58
SWIDTH 556 0
DWIDTH 10 0
BBX 2 8 4 0
BITMAP
c0
c0
00
00
00
00
c0
c0
ENDCHAR
STARTCHAR semicolon
ENCODING 59
SWIDTH 556 0
DWIDTH 10 0
BBX 3 10 3 -2
BITMAP
60
60
00
00
00
00
60
60
20
c0
ENDCHAR
STARTCHAR less
ENCODING 60
SWIDTH 556 0
DWIDTH 10 0
BBX 7 13 1 -1
BITMAP
02
06
0c
18
30
60
c0
60
30
18
0c
06
02
ENDCHAR
STARTCHAR equal
ENCODING 61
SWIDTH 556 0
DWIDTH 10 0
BBX 8 6 1 2
BITMAP
ff
ff
00
00
ff
ff
ENDCHAR
STARTCHAR greater
ENCODING 62
SWIDTH 556 0
DWIDTH 10 0
BBX 7 13 2 -1
BITMAP
80
c0
60
30
18
0c
06
0c
18
30
60
c0
80
ENDCHAR
STARTCHAR question
ENCODING 63
SWIDTH 556 0
DWIDTH 10 0
BBX 8 12 1 0
BITMAP
3c
66
c3
c3
03
06
0c
18
18
00
18
18
ENDCHAR
STARTCHAR at
ENCODING 64
SWIDTH 556 0
DWIDTH 10 0
BBX 9 12 0 -1
BITMAP
3e00
6300
c180
cf80
d980
d980
d980
d980
cf80
c000
6180
3f00
ENDCHAR
STARTCHAR A
ENCODING 65
SWIDTH 556 0
DWIDTH 10 0
BBX 9 12 0 0
BITMAP
0800
1c00
1c00
3600
3600
3600
6300
6300
7f00
c180
c180
c180
ENDCHAR
STARTCHAR B
ENCODING 66
SWIDTH 556 0
DWIDTH 10 0
BBX 8 12 1 0
BITMAP
fc
c6
c3
c3
c6
fc
c6
c3
c3
c3
c6
fc
ENDCHAR
STARTCHAR C
ENCODING 67
SWIDTH 556 0
DWIDTH 10 0
BBX 8 12 1 0
BITMAP
3c
66
c3
c0
c0
c0
c0
c0
c0
c3
66
3c
ENDCHAR
STARTCHAR D
ENCODING 68
SWIDTH 556 0
DWIDTH 10 0
BBX 8 12 1 0
BITMAP
fc
c6
c3
c3
c3
c3
c3
c3
c3
c3
c6
fc
ENDCHAR
STARTCHAR E
ENCODING 69
SWIDTH 556 0
DWIDTH 10 0
BBX 8 12 1 0
BITMAP
ff
c0
c0
c0
c0
fe
c0
c0
c0
c0
c0
ff
ENDCHAR
STARTCHAR F
ENCODING 70
SWIDTH 556 0
DWIDTH 10 0
BBX 8 12 1 0
BITMAP
ff
c0
c0
c0
c0
fe
c0
c0
c0
c0
c0
c0
ENDCHAR
STARTCHAR G
ENCODING 71
SWIDTH 556 0
DWIDTH 10 0
BBX 8 12 1 0
BITMAP
3c
66
c3
c0
c0
c0
cf
c3
c3
c3
67
3d
ENDCHAR
STARTCHAR H
ENCODING 72
SWIDTH 556 0
DWIDTH 10 0
BBX 8 12 1 0
BITMAP
c3
c3
c3
c3
c3
ff
c3
c3
c3
c3
c3
c3
ENDCHAR
STARTCHAR I
ENCODING 73
SWIDTH 556 0
DWIDTH 10 0
BBX 4 12 3 0
BITMAP
f0
60
60
60
60
60
60
60
60
60
60
f0
ENDCHAR
STARTCHAR J
ENCODING 74
SWIDTH 556 0
DWIDTH 10 0
BBX 8 12 1 0
BITMAP
03
03
03
03
03
03
03
c3
c3
c3
66
3c
ENDCHAR
STARTCHAR K
ENCODING 75
SWIDTH 556 0
DWIDTH 10 0
BBX 8 12 1 0
BITMAP
c1
c3
c6
cc
d8
f0
f8
cc
c6
c6
c3
c3
ENDCHAR
STARTCHAR L
ENCODING 76
SWIDTH 556 0
DWIDTH 10 0
BBX 8 12 1 0
BITMAP
c0
c0
c0
c0
c0
c0
c0
c0
c0
c0
c0
ff
ENDCHAR
STARTCHAR M
ENCODING 77
SWIDTH 556 0
DWIDTH 10 0
BBX 8 12 1 0
BITMAP
c3
c3
e7
e7
ff
db
db
c3
c3
c3
c3
c3
ENDCHAR
STARTCHAR N
ENCODING 78
SWIDTH 556 0
DWIDTH 10 0
BBX 8 12 1 0
BITMAP
c3
c3
e3
e3
f3
d3
db
cb
cf
c7
c7
c3
ENDCHAR
STARTCHAR O
ENCODING 79
SWIDTH 556 0
DWIDTH 10 0
BBX 8 12 1 0
BITMAP
3c
66
c3
c3
c3
c3
c3
c3
c3
c3
66
3c
ENDCHAR
STARTCHAR P
ENCODING 80
SWIDTH 556 0
DWIDTH 10 0
BBX 8 12 1 0
BITMAP
fc
c6
c3
c3
c3
c6
fc
c0
c0
c0
c0
c0
ENDCHAR
STARTCHAR Q
ENCODING 81
SWIDTH 556 0
DWIDTH 10 0
BBX 8 15 1 -3
BITMAP
3c
66
c3
c3
c3
c3
c3
c3
c3
d3
76
3c
08
0c
07
ENDCHAR
STARTCHAR R
ENCODING 82
SWIDTH 556 0
DWIDTH 10 0
BBX 8 12 1 0
BITMAP
fc
c6
c3
c3
c3
c6
fc
cc
c6
c6
c3
c3
ENDCHAR
STARTCHAR S
ENCODING 83
SWIDTH 556 0
DWIDTH 10 0
BBX 8 12 1 0
BITMAP
3c
66
c3
c0
e0
7c
3e
07
c3
c3
66
3c
ENDCHAR
STARTCHAR T
ENCODING 84
SWIDTH 556 0
DWIDTH 10 0
BBX 8 12 1 0
BITMAP
ff
18
18
18
18
18
18
18
18
18
18
18
ENDCHAR
STARTCHAR U
ENCODING 85
SWIDTH 556 0
DWIDTH 10 0
BBX 8 12 1 0
BITMAP
c3
c3
c3
c3
c3
c3
c3
c3
c3
c3
66
3c
ENDCHAR
STARTCHAR V
ENCODING 86
SWIDTH 556 0
DWIDTH 10 0
BBX 8 12 1 0
BITMAP
c3
c3
c3
c3
c3
66
66
66
3c
3c
18
18
ENDCHAR
STARTCHAR W
ENCODING 87
SWIDTH 556 0
DWIDTH 10 0
BBX 9 12 0 0
BITMAP
c180
c980
c980
c980
dd80
dd80
7f00
7f00
3600
3600
2200
2200
ENDCHAR
STARTCHAR X
ENCODING 88
SWIDTH 556 0
DWIDTH 10 0
BBX 8 12 1 0
BITMAP
c3
c3
66
66
3c
18
3c
66
66
c3
c3
c3
ENDCHAR
STARTCHAR Y
ENCODING 89
SWIDTH 556 0
DWIDTH 10 0
BBX 8 12 1 0
BITMAP
c3
c3
c3
66
66
3c
3c
18
18
18
18
18
ENDCHAR
STARTCHAR Z
ENCODING 90
SWIDTH 556 0
DWIDTH 10 0
BBX 8 12 1 0
BITMAP
ff
03
06
06
0c
18
18
30
60
60
c0
ff
ENDCHAR
STARTCHAR bracketleft
ENCODING 91
SWIDTH 556 0
DWIDTH 10 0
BBX 5 16 3 -3
BITMAP
f8
c0
c0
c0
c0
c0
c0
c0
c0
c0
c0
c0
c0
c0
c0
f8
ENDCHAR
STARTCHAR backslash
ENCODING 92
SWIDTH 556 0
DWIDTH 10 0
BBX 8 14 1 -1
BITMAP
c0
c0
60
60
30
30
18
18
0c
0c
06
06
03
03
ENDCHAR
STARTCHAR bracketright
ENCODING 93
SWIDTH 556 0
DWIDTH 10 0
BBX 5 16 3 -3
BITMAP
f8
18
18
18
18
18
18
18
18
18
18
18
18
18
18
f8
ENDCHAR
STARTCHAR asciicircum
ENCODING 94
SWIDTH 556 0
DWIDTH 10 0
BBX 7 4 1 8
BITMAP
10
38
6c
c6
ENDCHAR
STARTCHAR underscore
ENCODING 95
SWIDTH 556 0
DWIDTH 10 0
BBX 10 2 0 -3
BITMAP
ffc0
ffc0
ENDCHAR
STARTCHAR quoteleft
ENCODING 96
SWIDTH 556 0
DWIDTH 10 0
BBX 4 4 2 8
BITMAP
c0
c0
60
30
ENDCHAR
STARTCHAR a
ENCODING 97
SWIDTH 556 0
DWIDTH 10 0
BBX 8 9 1 0
BITMAP
7c
ce
06
3e
66
c6
c6
ce
7b
ENDCHAR
STARTCHAR b
ENCODING 98
SWIDTH 556 0
DWIDTH 10 0
BBX 8 12 1 0
BITMAP
c0
c0
c0
dc
e6
c3
c3
c3
c3
c3
e6
dc
ENDCHAR
STARTCHAR c
ENCODING 99
SWIDTH 556 0
DWIDTH 10 0
BBX 8 9 1 0
BITMAP
3c
66
c3
c0
c0
c0
c3
66
3c
ENDCHAR
STARTCHAR d
ENCODING 100
SWIDTH 556 0
DWIDTH 10 0
BBX 8 12 1 0
BITMAP
03
03
03
3b
67
c3
c3
c3
c3
c3
67
3b
ENDCHAR
STARTCHAR e
ENCODING 101
SWIDTH 556 0
DWIDTH 10 0
BBX 8 9 1 0
BITMAP
3c
66
c3
c3
ff
c0
c0
63
3e
ENDCHAR
STARTCHAR f
ENCODING 102
SWIDTH 556 0
DWIDTH 10 0
BBX 7 12 1 0
BITMAP
1e
30
30
fe
30
30
30
30
30
30
30
30
ENDCHAR
STARTCHAR g
ENCODING 103
SWIDTH 556 0
DWIDTH 10 0
BBX 8 13 1 -4
BITMAP
3b
67
c3
c3
c3
c3
c3
67
3b
03
03
c6
7c
ENDCHAR
STARTCHAR h
ENCODING 104
SWIDTH 556 0
DWIDTH 10 0
BBX 8 12 1 0
BITMAP
c0
c0
c0
dc
e6
c3
c3
c3
c3
c3
c3
c3
ENDCHAR
STARTCHAR i
ENCODING 105
SWIDTH 556 0
DWIDTH 10 0
BBX 4 12 3 0
BITMAP
30
30
00
f0
30
30
30
30
30
30
30
30
ENDCHAR
STARTCHAR j
ENCODING 106
SWIDTH 556 0
DWIDTH 10 0
BBX 7 16 1 -4
BITMAP
06
06
00
1e
06
06
06
06
06
06
06
06
c6
c6
6c
38
ENDCHAR
STARTCHAR k
ENCODING 107
SWIDTH 556 0
DWIDTH 10 0
BBX 8 12 1 0
BITMAP
c0
c0
c0
c3
c6
cc
f8
f0
d8
cc
c6
c3
ENDCHAR
STARTCHAR l
ENCODING 108
SWIDTH 556 0
DWIDTH 10 0
BBX 4 12 3 0
BITMAP
f0
30
30
30
30
30
30
30
30
30
30
30
ENDCHAR
STARTCHAR m
ENCODING 109
SWIDTH 556 0
DWIDTH 10 0
BBX 8 9 1 0
BITMAP
b6
ff
db
db
db
db
db
db
db
ENDCHAR
STARTCHAR n
ENCODING 110
SWIDTH 556 0
DWIDTH 10 0
BBX 8 9 1 0
BITMAP
dc
e6
c3
c3
c3
c3
c3
c3
c3
ENDCHAR
STARTCHAR o
ENCODING 111
SWIDTH 556 0
DWIDTH 10 0
BBX 8 9 1 0
BITMAP
3c
66
c3
c3
c3
c3
c3
66
3c
ENDCHAR
STARTCHAR p
ENCODING 112
SWIDTH 556 0
DWIDTH 10 0
BBX 8 13 1 -4
BITMAP
dc
e6
c3
c3
c3
c3
c3
e6
dc
c0
c0
c0
c0
ENDCHAR
STARTCHAR q
ENCODING 113
SWIDTH 556 0
DWIDTH 10 0
BBX 8 13 1 -4
BITMAP
3b
67
c3
c3
c3
c3
c3
67
3b
03
03
03
03
ENDCHAR
STARTCHAR r
ENCODING 114
SWIDTH 556 0
DWIDTH 10 0
BBX 8 9 1 0
BITMAP
de
f3
c0
c0
c0
c0
c0
c0
c0
ENDCHAR
STARTCHAR s
ENCODING 115
SWIDTH 556 0
DWIDTH 10 0
BBX 8 9 1 0
BITMAP
7e
c3
c1
f0
7e
0f
83
c3
7e
ENDCHAR
STARTCHAR t
ENCODING 116
SWIDTH 556 0
DWIDTH 10 0
BBX 7 11 2 0
BITMAP
30
30
fc
30
30
30
30
30
30
18
0e
ENDCHAR
STARTCHAR u
ENCODING 117
SWIDTH 556 0
DWIDTH 10 0
BBX 8 9 1 0
BITMAP
c3
c3
c3
c3
c3
c3
c3
67
3b
ENDCHAR
STARTCHAR v
ENCODING 118
SWIDTH 556 0
DWIDTH 10 0
BBX 8 9 1 0
BITMAP
c3
c3
c3
66
66
3c
3c
18
18
ENDCHAR
STARTCHAR w
ENCODING 119
SWIDTH 556 0
DWIDTH 10 0
BBX 8 9 1 0
BITMAP
c3
c3
db
db
db
db
db
ff
66
ENDCHAR
STARTCHAR x
ENCODING 120
SWIDTH 556 0
DWIDTH 10 0
BBX 8 9 1 0
BITMAP
c3
c3
66
3c
18
3c
66
c3
c3
ENDCHAR
STARTCHAR y
ENCODING 121
SWIDTH 556 0
DWIDTH 10 0
BBX 8 13 1 -4
BITMAP
c3
c3
c3
c3
c3
c3
c3
67
3b
03
03
c6
7c
ENDCHAR
STARTCHAR z
ENCODING 122
SWIDTH 556 0
DWIDTH 10 0
BBX 8 9 1 0
BITMAP
ff
03
06
0c
18
30
60
c0
ff
ENDCHAR
STARTCHAR braceleft
ENCODING 123
SWIDTH 556 0
DWIDTH 10 0
BBX 7 17 2 -4
BITMAP
0e
18
30
30
30
30
30
30
e0
30
30
30
30
30
30
18
0e
ENDCHAR
STARTCHAR bar
ENCODING 124
SWIDTH 556 0
DWIDTH 10 0
BBX 2 17 4 -4
BITMAP
c0
c0
c0
c0
c0
c0
c0
c0
c0
c0
c0
c0
c0
c0
c0
c0
c0
ENDCHAR
STARTCHAR braceright
ENCODING 125
SWIDTH 556 0
DWIDTH 10 0
BBX 7 17 1 -4
BITMAP
e0
30
18
18
18
18
18
18
0e
18
18
18
18
18
18
30
e0
ENDCHAR
STARTCHAR asciitilde
ENCODING 126
SWIDTH 556 0
DWIDTH 10 0
BBX 6 3 2 4
BITMAP
64
fc
98
ENDCHAR
STARTCHAR exclamdown
ENCODING 161
SWIDTH 556 0
DWIDTH 10 0
BBX 2 12 4 -3
BITMAP
c0
c0
00
c0
c0
c0
c0
c0
c0
c0
c0
c0
ENDCHAR
STARTCHAR cent
ENCODING 162
SWIDTH 556 0
DWIDTH 10 0
BBX 7 11 1 0
BITMAP
18
18
3c
66
c0
c0
c0
66
3c
18
18
ENDCHAR
STARTCHAR sterling
ENCODING 163
SWIDTH 556 0
DWIDTH 10 0
BBX 8 12 1 0
BITMAP
3c
7e
62
60
60
30
fc
30
30
61
ff
de
ENDCHAR
STARTCHAR currency
ENCODING 164
SWIDTH 556 0
DWIDTH 10 0
BBX 6 6 2 2
BITMAP
cc
fc
48
48
fc
cc
ENDCHAR
STARTCHAR yen
ENCODING 165
SWIDTH 556 0
DWIDTH 10 0
BBX 8 12 1 0
BITMAP
c3
c3
66
66
66
3c
ff
18
ff
18
18
18
ENDCHAR
STARTCHAR brokenbar
ENCODING 166
SWIDTH 556 0
DWIDTH 10 0
BBX 2 17 4 -4
BITMAP
c0
c0
c0
c0
c0
c0
c0
00
00
00
c0
c0
c0
c0
c0
c0
c0
ENDCHAR
STARTCHAR section
ENCODING 167
SWIDTH 556 0
DWIDTH 10 0
BBX 8 15 1 -3
BITMAP
3c
7e
c3
e0
78
cc
c6
c3
63
33
1e
07
c3
7e
3c
ENDCHAR
STARTCHAR dieresis
ENCODING 168
SWIDTH 556 0
DWIDTH 10 0
BBX 5 2 2 9
BITMAP
d8
d8
ENDCHAR
STARTCHAR copyright
ENCODING 169
SWIDTH 556 0
DWIDTH 10 0
BBX 9 9 0 0
BITMAP
3e00
6300
dd80
b680
b080
b680
dd80
6300
3e00
ENDCHAR
STARTCHAR ordfeminine
ENCODING 170
SWIDTH 556 0
DWIDTH 10 0
BBX 5 9 2 3
BITMAP
70
98
78
d8
d8
68
00
f8
f8
ENDCHAR
STARTCHAR guillemotleft
ENCODING 171
SWIDTH 556 0
DWIDTH 10 0
BBX 7 8 2 0
BITMAP
12
36
6c
d8
d8
6c
36
12
ENDCHAR
STARTCHAR logicalnot
ENCODING 172
SWIDTH 556 0
DWIDTH 10 0
BBX 8 5 1 2
BITMAP
ff
ff
03
03
03
ENDCHAR
STARTCHAR hyphen
ENCODING 173
SWIDTH 556 0
DWIDTH 10 0
BBX 6 2 2 4
BITMAP
fc
fc
ENDCHAR
STARTCHAR registered
ENCODING 174
SWIDTH 556 0
DWIDTH 10 0
BBX 9 9 0 0
BITMAP
3e00
6300
dd80
9680
9e80
9480
d780
6300
3e00
ENDCHAR
STARTCHAR macron
ENCODING 175
SWIDTH 556 0
DWIDTH 10 0
BBX 4 2 3 9
BITMAP
f0
f0
ENDCHAR
STARTCHAR degree
ENCODING 176
SWIDTH 556 0
DWIDTH 10 0
BBX 5 4 2 5
BITMAP
70
d8
d8
70
ENDCHAR
STARTCHAR plusminus
ENCODING 177
SWIDTH 556 0
DWIDTH 10 0
BBX 8 11 1 0
BITMAP
18
18
18
ff
ff
18
18
18
00
ff
ff
ENDCHAR
STARTCHAR twosuperior
ENCODING 178
SWIDTH 556 0
DWIDTH 10 0
BBX 5 7 2 5
BITMAP
70
f8
98
38
60
f8
f8
ENDCHAR
STARTCHAR threesuperior
ENCODING 179
SWIDTH 556 0
DWIDTH 10 0
BBX 5 7 2 5
BITMAP
70
f8
18
30
18
f8
70
ENDCHAR
STARTCHAR acute
ENCODING 180
SWIDTH 556 0
DWIDTH 10 0
BBX 5 3 2 9
BITMAP
38
70
e0
ENDCHAR
STARTCHAR mu
ENCODING 181
SWIDTH 556 0
DWIDTH 10 0
BBX 8 12 1 -3
BITMAP
c3
c3
c3
c3
c3
c3
c3
e7
fb
c0
c0
c0
ENDCHAR
STARTCHAR paragraph
ENCODING 182
SWIDTH 556 0
DWIDTH 10 0
BBX 10 14 0 -2
BITMAP
3fc0
7980
d980
d980
d980
d980
7980
3980
1980
1980
1980
1980
1980
1980
ENDCHAR
STARTCHAR periodcentered
ENCODING 183
SWIDTH 556 0
DWIDTH 10 0
BBX 2 2 4 4
BITMAP
c0
c0
ENDCHAR
STARTCHAR cedilla
ENCODING 184
SWIDTH 556 0
DWIDTH 10 0
BBX 4 4 3 -4
BITMAP
60
70
10
f0
ENDCHAR
STARTCHAR onesuperior
ENCODING 185
SWIDTH 556 0
DWIDTH 10 0
BBX 4 7 3 5
BITMAP
60
e0
60
60
60
60
f0
ENDCHAR
STARTCHAR ordmasculine
ENCODING 186
SWIDTH 556 0
DWIDTH 10 0
BBX 5 9 2 3
BITMAP
70
d8
d8
d8
d8
70
00
f8
f8
ENDCHAR
STARTCHAR guillemotright
ENCODING 187
SWIDTH 556 0
DWIDTH 10 0
BBX 7 8 1 0
BITMAP
90
d8
6c
36
36
6c
58
90
ENDCHAR
STARTCHAR onequarter
ENCODING 188
SWIDTH 556 0
DWIDTH 10 0
BBX 10 14 0 -1
BITMAP
6000
e000
6000
6000
6180
6300
f600
0d80
1b80
3780
6d80
0fc0
0180
0180
ENDCHAR
STARTCHAR onehalf
ENCODING 189
SWIDTH 556 0
DWIDTH 10 0
BBX 10 15 0 -2
BITMAP
6000
e000
6000
6000
6180
6300
f600
0c00
1b80
37c0
64c0
01c0
0300
07c0
07c0
ENDCHAR
STARTCHAR threequarters
ENCODING 190
SWIDTH 556 0
DWIDTH 10 0
BBX 10 14 0 -1
BITMAP
7000
f800
1800
3000
1980
fb00
7600
0d80
1b80
3780
6d80
0fc0
0180
0180
ENDCHAR
STARTCHAR questiondown
ENCODING 191
SWIDTH 556 0
DWIDTH 10 0
BBX 8 12 1 -3
BITMAP
18
18
00
18
18
30
60
c0
c3
c3
66
3c
ENDCHAR
STARTCHAR Agrave
ENCODING 192
SWIDTH 556 0
DWIDTH 10 0
BBX 9 13 0 0
BITMAP
3800
1c00
0000
0800
1c00
1c00
3600
3600
6300
7f00
c180
c180
c180
ENDCHAR
STARTCHAR Aacute
ENCODING 193
SWIDTH 556 0
DWIDTH 10 0
BBX 9 13 0 0
BITMAP
0e00
1c00
0000
0800
1c00
1c00
3600
3600
6300
7f00
c180
c180
c180
ENDCHAR
STARTCHAR Acircumflex
ENCODING 194
SWIDTH 556 0
DWIDTH 10 0
BBX 9 13 0 0
BITMAP
1c00
3600
0000
0800
1c00
1c00
3600
3600
6300
7f00
c180
c180
c180
ENDCHAR
STARTCHAR Atilde
ENCODING 195
SWIDTH 556 0
DWIDTH 10 0
BBX 9 13 0 0
BITMAP
3b00
6e00
0000
0800
1c00
1c00
3600
3600
6300
7f00
c180
c180
c180
ENDCHAR
STARTCHAR Adieresis
ENCODING 196
SWIDTH 556 0
DWIDTH 10 0
BBX 9 13 0 0
BITMAP
3600
3600
0000
0800
1c00
1c00
3600
3600
6300
7f00
c180
c180
c180
ENDCHAR
STARTCHAR Aring
ENCODING 197
SWIDTH 556 0
DWIDTH 10 0
BBX 9 13 0 0
BITMAP
1c00
3600
1c00
0800
1c00
1c00
3600
3600
6300
7f00
c180
c180
c180
ENDCHAR
STARTCHAR AE
ENCODING 198
SWIDTH 556 0
DWIDTH 10 0
BBX 9 11 0 0
BITMAP
1f80
3c00
6c00
4c00
cc00
cf00
fc00
cc00
cc00
cc00
cf80
ENDCHAR
STARTCHAR Ccedilla
ENCODING 199
SWIDTH 556 0
DWIDTH 10 0
BBX 8 14 1 -4
BITMAP
3c
66
c3
c0
c0
c0
c0
c3
66
3c
18
1c
0c
3c
ENDCHAR
STARTCHAR Egrave
ENCODING 200
SWIDTH 556 0
DWIDTH 10 0
BBX 8 13 1 0
BITMAP
38
1c
00
ff
c0
c0
c0
fe
c0
c0
c0
c0
ff
ENDCHAR
STARTCHAR Eacute
ENCODING 201
SWIDTH 556 0
DWIDTH 10 0
BBX 8 13 1 0
BITMAP
0e
1c
00
ff
c0
c0
c0
fe
c0
c0
c0
c0
ff
ENDCHAR
STARTCHAR Ecircumflex
ENCODING 202
SWIDTH 556 0
DWIDTH 10 0
BBX 8 13 1 0
BITMAP
1c
36
00
ff
c0
c0
c0
fe
c0
c0
c0
c0
ff
ENDCHAR
STARTCHAR Edieresis
ENCODING 203
SWIDTH 556 0
DWIDTH 10 0
BBX 8 13 1 0
BITMAP
36
36
00
ff
c0
c0
c0
fe
c0
c0
c0
c0
ff
ENDCHAR
STARTCHAR Igrave
ENCODING 204
SWIDTH 556 0
DWIDTH 10 0
BBX 4 13 3 0
BITMAP
e0
70
00
f0
60
60
60
60
60
60
60
60
f0
ENDCHAR
STARTCHAR Iacute
ENCODING 205
SWIDTH 556 0
DWIDTH 10 0
BBX 4 13 3 0
BITMAP
70
e0
00
f0
60
60
60
60
60
60
60
60
f0
ENDCHAR
STARTCHAR Icircumflex
ENCODING 206
SWIDTH 556 0
DWIDTH 10 0
BBX 5 13 3 0
BITMAP
70
d8
00
f0
60
60
60
60
60
60
60
60
f0
ENDCHAR
STARTCHAR Idieresis
ENCODING 207
SWIDTH 556 0
DWIDTH 10 0
BBX 5 13 3 0
BITMAP
d8
d8
00
f0
60
60
60
60
60
60
60
60
f0
ENDCHAR
STARTCHAR Eth
ENCODING 208
SWIDTH 556 0
DWIDTH 10 0
BBX 9 11 0 0
BITMAP
7e00
6300
6180
6180
6180
f980
6180
6180
6180
6300
7e00
ENDCHAR
STARTCHAR Ntilde
ENCODING 209
SWIDTH 556 0
DWIDTH 10 0
BBX 8 13 1 0
BITMAP
3b
6e
00
c3
e3
e3
f3
db
cb
cf
c7
c7
c3
ENDCHAR
STARTCHAR Ograve
ENCODING 210
SWIDTH 556 0
DWIDTH 10 0
BBX 8 13 1 0
BITMAP
38
1c
00
3c
66
c3
c3
c3
c3
c3
c3
66
3c
ENDCHAR
STARTCHAR Oacute
ENCODING 211
SWIDTH 556 0
DWIDTH 10 0
BBX 8 13 1 0
BITMAP
1c
38
00
3c
66
c3
c3
c3
c3
c3
c3
66
3c
ENDCHAR
STARTCHAR Ocircumflex
ENCODING 212
SWIDTH 556 0
DWIDTH 10 0
BBX 8 13 1 0
BITMAP
1c
36
00
3c
66
c3
c3
c3
c3
c3
c3
66
3c
ENDCHAR
STARTCHAR Otilde
ENCODING 213
SWIDTH 556 0
DWIDTH 10 0
BBX 8 13 1 0
BITMAP
3b
6e
00
3c
66
c3
c3
c3
c3
c3
c3
66
3c
ENDCHAR
STARTCHAR Odieresis
ENCODING 214
SWIDTH 556 0
DWIDTH 10 0
BBX 8 13 1 0
BITMAP
36
36
00
3c
66
c3
c3
c3
c3
c3
c3
66
3c
ENDCHAR
STARTCHAR multiply
ENCODING 215
SWIDTH 556 0
DWIDTH 10 0
BBX 8 7 1 1
BITMAP
c3
66
3c
18
3c
66
c3
ENDCHAR
STARTCHAR Oslash
ENCODING 216
SWIDTH 556 0
DWIDTH 10 0
BBX 8 10 1 0
BITMAP
3d
66
c7
cf
cb
db
d3
f3
66
bc
ENDCHAR
STARTCHAR Ugrave
ENCODING 217
SWIDTH 556 0
DWIDTH 10 0
BBX 8 13 1 0
BITMAP
38
1c
00
c3
c3
c3
c3
c3
c3
c3
c3
66
3c
ENDCHAR
STARTCHAR Uacute
ENCODING 218
SWIDTH 556 0
DWIDTH 10 0
BBX 8 13 1 0
BITMAP
1c
38
00
c3
c3
c3
c3
c3
c3
c3
c3
66
3c
ENDCHAR
STARTCHAR Ucircumflex
ENCODING 219
SWIDTH 556 0
DWIDTH 10 0
BBX 8 13 1 0
BITMAP
1c
36
00
c3
c3
c3
c3
c3
c3
c3
c3
66
3c
ENDCHAR
STARTCHAR Udieresis
ENCODING 220
SWIDTH 556 0
DWIDTH 10 0
BBX 8 13 1 0
BITMAP
36
36
00
c3
c3
c3
c3
c3
c3
c3
c3
66
3c
ENDCHAR
STARTCHAR Yacute
ENCODING 221
SWIDTH 556 0
DWIDTH 10 0
BBX 8 13 1 0
BITMAP
1c
38
00
c3
c3
66
66
3c
3c
18
18
18
18
ENDCHAR
STARTCHAR Thorn
ENCODING 222
SWIDTH 556 0
DWIDTH 10 0
BBX 9 12 0 0
BITMAP
f000
6000
6000
7e00
6300
6180
6180
6300
7e00
6000
6000
f000
ENDCHAR
STARTCHAR germandbls
ENCODING 223
SWIDTH 556 0
DWIDTH 10 0
BBX 7 11 1 0
BITMAP
30
78
cc
cc
d8
cc
c6
c6
c6
e6
dc
ENDCHAR
STARTCHAR agrave
ENCODING 224
SWIDTH 556 0
DWIDTH 10 0
BBX 8 12 1 0
BITMAP
70
38
00
7c
ce
06
3e
66
c6
c6
ce
7b
ENDCHAR
STARTCHAR aacute
ENCODING 225
SWIDTH 556 0
DWIDTH 10 0
BBX 8 12 1 0
BITMAP
1c
38
00
7c
ce
06
3e
66
c6
c6
ce
7b
ENDCHAR
STARTCHAR acircumflex
ENCODING 226
SWIDTH 556 0
DWIDTH 10 0
BBX 8 12 1 0
BITMAP
38
6c
00
7c
ce
06
3e
66
c6
c6
ce
7b
ENDCHAR
STARTCHAR atilde
ENCODING 227
SWIDTH 556 0
DWIDTH 10 0
BBX 8 12 1 0
BITMAP
76
dc
00
7c
ce
06
3e
66
c6
c6
ce
7b
ENDCHAR
STARTCHAR adieresis
ENCODING 228
SWIDTH 556 0
DWIDTH 10 0
BBX 8 12 1 0
BITMAP
6c
6c
00
7c
ce
06
3e
66
c6
c6
ce
7b
ENDCHAR
STARTCHAR aring
ENCODING 229
SWIDTH 556 0
DWIDTH 10 0
BBX 8 13 1 0
BITMAP
38
6c
6c
38
7c
ce
06
3e
66
c6
c6
ce
7b
ENDCHAR
STARTCHAR ae
ENCODING 230
SWIDTH 556 0
DWIDTH 10 0
BBX 10 9 0 0
BITMAP
7380
dec0
0cc0
0cc0
7f80
cc00
cc00
dcc0
7780
ENDCHAR
STARTCHAR ccedilla
ENCODING 231
SWIDTH 556 0
DWIDTH 10 0
BBX 8 13 1 -4
BITMAP
3c
66
c3
c0
c0
c0
c3
66
3c
18
1c
0c
3c
ENDCHAR
STARTCHAR egrave
ENCODING 232
SWIDTH 556 0
DWIDTH 10 0
BBX 8 12 1 0
BITMAP
38
1c
00
3c
66
c3
c3
ff
c0
c0
63
3e
ENDCHAR
STARTCHAR eacute
ENCODING 233
SWIDTH 556 0
DWIDTH 10 0
BBX 8 12 1 0
BITMAP
1c
38
00
3c
66
c3
c3
ff
c0
c0
63
3e
ENDCHAR
STARTCHAR ecircumflex
ENCODING 234
SWIDTH 556 0
DWIDTH 10 0
BBX 8 12 1 0
BITMAP
38
6c
00
3c
66
c3
c3
ff
c0
c0
63
3e
ENDCHAR
STARTCHAR edieresis
ENCODING 235
SWIDTH 556 0
DWIDTH 10 0
BBX 8 12 1 0
BITMAP
6c
6c
00
3c
66
c3
c3
ff
c0
c0
63
3e
ENDCHAR
STARTCHAR igrave
ENCODING 236
SWIDTH 556 0
DWIDTH 10 0
BBX 4 12 3 0
BITMAP
e0
70
00
f0
30
30
30
30
30
30
30
30
ENDCHAR
STARTCHAR iacute
ENCODING 237
SWIDTH 556 0
DWIDTH 10 0
BBX 4 12 3 0
BITMAP
70
e0
00
f0
30
30
30
30
30
30
30
30
ENDCHAR
STARTCHAR icircumflex
ENCODING 238
SWIDTH 556 0
DWIDTH 10 0
BBX 5 12 3 0
BITMAP
70
d8
00
f0
30
30
30
30
30
30
30
30
ENDCHAR
STARTCHAR idieresis
ENCODING 239
SWIDTH 556 0
DWIDTH 10 0
BBX 5 12 3 0
BITMAP
d8
d8
00
f0
30
30
30
30
30
30
30
30
ENDCHAR
STARTCHAR eth
ENCODING 240
SWIDTH 556 0
DWIDTH 10 0
BBX 8 12 1 0
BITMAP
d8
70
d8
3c
66
c3
c3
c3
c3
c3
66
3c
ENDCHAR
STARTCHAR ntilde
ENCODING 241
SWIDTH 556 0
DWIDTH 10 0
BBX 8 12 1 0
BITMAP
76
dc
00
dc
e6
c3
c3
c3
c3
c3
c3
c3
ENDCHAR
STARTCHAR ograve
ENCODING 242
SWIDTH 556 0
DWIDTH 10 0
BBX 8 12 1 0
BITMAP
38
1c
00
3c
66
c3
c3
c3
c3
c3
66
3c
ENDCHAR
STARTCHAR oacute
ENCODING 243
SWIDTH 556 0
DWIDTH 10 0
BBX 8 12 1 0
BITMAP
1c
38
00
3c
66
c3
c3
c3
c3
c3
66
3c
ENDCHAR
STARTCHAR ocircumflex
ENCODING 244
SWIDTH 556 0
DWIDTH 10 0
BBX 8 12 1 0
BITMAP
1c
36
00
3c
66
c3
c3
c3
c3
c3
66
3c
ENDCHAR
STARTCHAR otilde
ENCODING 245
SWIDTH 556 0
DWIDTH 10 0
BBX 8 12 1 0
BITMAP
3b
6e
00
3c
66
c3
c3
c3
c3
c3
66
3c
ENDCHAR
STARTCHAR odieresis
ENCODING 246
SWIDTH 556 0
DWIDTH 10 0
BBX 8 12 1 0
BITMAP
36
36
00
3c
66
c3
c3
c3
c3
c3
66
3c
ENDCHAR
STARTCHAR divide
ENCODING 247
SWIDTH 556 0
DWIDTH 10 0
BBX 8 8 1 0
BITMAP
18
18
00
ff
ff
00
18
18
ENDCHAR
STARTCHAR oslash
ENCODING 248
SWIDTH 556 0
DWIDTH 10 0
BBX 8 9 1 0
BITMAP
3d
66
c7
cf
db
d3
f3
66
bc
ENDCHAR
STARTCHAR ugrave
ENCODING 249
SWIDTH 556 0
DWIDTH 10 0
BBX 8 12 1 0
BITMAP
38
1c
00
c3
c3
c3
c3
c3
c3
c3
67
3b
ENDCHAR
STARTCHAR uacute
ENCODING 250
SWIDTH 556 0
DWIDTH 10 0
BBX 8 12 1 0
BITMAP
1c
38
00
c3
c3
c3
c3
c3
c3
c3
67
3b
ENDCHAR
STARTCHAR ucircumflex
ENCODING 251
SWIDTH 556 0
DWIDTH 10 0
BBX 8 12 1 0
BITMAP
1c
36
00
c3
c3
c3
c3
c3
c3
c3
67
3b
ENDCHAR
STARTCHAR udieresis
ENCODING 252
SWIDTH 556 0
DWIDTH 10 0
BBX 8 12 1 0
BITMAP
36
36
00
c3
c3
c3
c3
c3
c3
c3
67
3b
ENDCHAR
STARTCHAR yacute
ENCODING 253
SWIDTH 556 0
DWIDTH 10 0
BBX 8 16 1 -4
BITMAP
1c
38
00
c3
c3
c3
c3
c3
c3
c3
67
3b
03
03
c6
7c
ENDCHAR
STARTCHAR thorn
ENCODING 254
SWIDTH 556 0
DWIDTH 10 0
BBX 9 14 0 -2
BITMAP
e000
6000
7e00
7300
6180
6180
6180
6180
6180
7300
7e00
6000
6000
f000
ENDCHAR
STARTCHAR ydieresis
ENCODING 255
SWIDTH 556 0
DWIDTH 10 0
BBX 8 16 1 -4
BITMAP
36
36
00
c3
c3
c3
c3
c3
c3
c3
67
3b
03
03
c6
7c
ENDCHAR
ENDFONT
